<svg width="372" height="97" viewBox="0 0 372 97" fill="none" xmlns="http://www.w3.org/2000/svg">
<g clip-path="url(#clip0_50_65)">
<path d="M58.6941 23.8367C59.4538 23.8367 60.064 23.223 60.064 22.4589C60.064 21.6948 59.4538 21.0811 58.6941 21.0811C57.9344 21.0811 57.3242 21.6948 57.3242 22.4589C57.3242 23.223 57.9344 23.8367 58.6941 23.8367Z" fill="black"/>
<path d="M55.0574 61.2889C55.8171 61.2889 56.4273 60.6751 56.4273 59.911C56.4273 59.147 55.8171 58.5332 55.0574 58.5332C54.2977 58.5332 53.6875 59.147 53.6875 59.911C53.6875 60.6751 54.2977 61.2889 55.0574 61.2889Z" fill="black"/>
<path d="M59.3894 75.9188C60.1491 75.9188 60.7593 75.305 60.7593 74.5409C60.7593 73.7768 60.1491 73.1631 59.3894 73.1631C58.6298 73.1631 58.0195 73.7768 58.0195 74.5409C58.0195 75.305 58.6298 75.9188 59.3894 75.9188Z" fill="black"/>
<path d="M51.7683 90.5496C52.528 90.5496 53.1382 89.9359 53.1382 89.1718C53.1382 88.4077 52.528 87.7939 51.7683 87.7939C51.0087 87.7939 50.3984 88.4077 50.3984 89.1718C50.3984 89.9359 51.0087 90.5496 51.7683 90.5496Z" fill="black"/>
<path d="M32.7136 96.9998C33.4733 96.9998 34.0835 96.3861 34.0835 95.622C34.0835 94.8579 33.4733 94.2441 32.7136 94.2441C31.954 94.2441 31.3438 94.8579 31.3438 95.622C31.3438 96.3861 31.954 96.9998 32.7136 96.9998Z" fill="black"/>
<path d="M2.06911 75.9188C2.82878 75.9188 3.439 75.305 3.439 74.5409C3.439 73.7768 2.82878 73.1631 2.06911 73.1631C1.30944 73.1631 0.699219 73.7768 0.699219 74.5409C0.699219 75.305 1.30944 75.9188 2.06911 75.9188Z" fill="black"/>
<path d="M10.3738 90.1981C11.1335 90.1981 11.7437 89.5843 11.7437 88.8202C11.7437 88.0562 11.1335 87.4424 10.3738 87.4424C9.61413 87.4424 9.00391 88.0562 9.00391 88.8202C9.00391 89.5843 9.61413 90.1981 10.3738 90.1981Z" fill="black"/>
<path d="M51.4207 10.5965C52.1803 10.5965 52.7906 9.98274 52.7906 9.21866C52.7906 8.45459 52.1803 7.84082 51.4207 7.84082C50.661 7.84082 50.0508 8.45459 50.0508 9.21866C50.0508 9.98274 50.661 10.5965 51.4207 10.5965Z" fill="black"/>
<path d="M32.7136 2.76838C33.4733 2.76838 34.0835 2.15461 34.0835 1.39054C34.0835 0.626461 33.4733 0.0126953 32.7136 0.0126953C31.954 0.0126953 31.3438 0.626461 31.3438 1.39054C31.3438 2.15461 31.954 2.76838 32.7136 2.76838Z" fill="black"/>
<path d="M10.7215 9.73224C11.4811 9.73224 12.0913 9.11848 12.0913 8.3544C12.0913 7.59033 11.4811 6.97656 10.7215 6.97656C9.96179 6.97656 9.35156 7.59033 9.35156 8.3544C9.35156 9.11848 9.96179 9.73224 10.7215 9.73224Z" fill="black"/>
<path d="M1.36989 23.8367C2.12956 23.8367 2.73978 23.223 2.73978 22.4589C2.73978 21.6948 2.12956 21.0811 1.36989 21.0811C0.610224 21.0811 0 21.6948 0 22.4589C0 23.223 0.610224 23.8367 1.36989 23.8367Z" fill="black"/>
<path d="M5.8777 38.6424C6.63737 38.6424 7.24759 38.0286 7.24759 37.2646C7.24759 36.5005 6.63737 35.8867 5.8777 35.8867C5.11804 35.8867 4.50781 36.5005 4.50781 37.2646C4.50781 38.0286 5.11804 38.6424 5.8777 38.6424Z" fill="black"/>
<path fill-rule="evenodd" clip-rule="evenodd" d="M32.5541 0.976562L51.3963 8.88036L59.4662 23.0721L24.5216 12.7634L11.0219 30.6628L30.5865 48.2365L55.6679 59.6726L51.2095 66.7747L59.8025 74.4906L52.019 89.4715L39.279 85.7639L32.8032 96.0852L10.1128 88.72L1.30817 74.0021L38.9802 84.9622L50.3253 66.9L30.2129 48.8252L5.09405 37.3891L10.0879 30.763L0.984375 22.5711L10.337 7.86577L24.2725 11.9742L32.5541 0.976562ZM24.9699 12.1747L58.0216 21.9197L50.9107 9.4315L32.7783 1.82832L24.9699 12.1872V12.1747ZM23.8242 12.5504L10.6359 8.65489L1.86858 22.4458L10.5113 30.2118L23.8242 12.563V12.5504ZM10.611 31.2139L6.16505 37.1136L28.4943 47.2845L10.611 31.2139ZM32.3051 49.7772L50.6989 66.2988L54.6716 59.9607L32.3051 49.7647V49.7772ZM50.8484 67.3634L39.6776 85.1626L51.6952 88.6573L58.9681 74.6535L50.8608 67.3634H50.8484ZM38.6065 85.5635L2.81505 75.1545L10.5861 88.1438L32.5292 95.271L38.619 85.576L38.6065 85.5635Z" fill="black"/>
<path fill-rule="evenodd" clip-rule="evenodd" d="M1.23438 22.2213L32.4803 1.11523L32.8664 1.69142L1.62043 22.7974L1.23438 22.2213Z" fill="black"/>
<path fill-rule="evenodd" clip-rule="evenodd" d="M1.75769 22.4092L5.96699 37.1646L5.30696 37.3525L1.09766 22.5971L1.75769 22.4092Z" fill="black"/>
<path fill-rule="evenodd" clip-rule="evenodd" d="M32.7408 1.01465L58.968 22.2334L58.5321 22.772L32.5914 1.79125L10.586 8.59277L10.3867 7.9289L32.7408 1.01465Z" fill="black"/>
<path fill-rule="evenodd" clip-rule="evenodd" d="M58.9916 74.4532L54.8446 59.9232L55.5046 59.7354L59.7762 74.7162L32.6773 96.1229L1.86719 74.8666L2.25325 74.2904L32.6524 95.2461L58.9916 74.4407V74.4532Z" fill="black"/>
<path fill-rule="evenodd" clip-rule="evenodd" d="M51.9815 89.4092L32.7906 96.0103L32.5664 95.3589L51.7573 88.7578L51.9815 89.4092Z" fill="black"/>
<path opacity="0.15" d="M1.38281 22.835L5.50494 37.3649L30.9974 49.1267L1.38281 22.835Z" fill="black"/>
<path opacity="0.15" d="M59.3181 74.5415L55.2458 59.9113L31.0859 49.0264L59.3181 74.5415Z" fill="black"/>
<path opacity="0.1" d="M59.4919 74.6419L55.2453 60.0117L32.8164 95.3721L59.4795 74.6419H59.4919Z" fill="black"/>
<path opacity="0.1" d="M32.3797 1.41504L1.38281 22.7966L5.51739 37.289L32.3797 1.41504Z" fill="black"/>
<path opacity="0.1" d="M32.6391 95.7098L2.07812 74.5537L10.3846 88.4824L32.6391 95.7098Z" fill="black"/>
<path opacity="0.1" d="M33.0781 1.41504L58.5332 22.1453L51.086 9.24368L33.0781 1.41504Z" fill="black"/>
<path opacity="0.05" d="M51.2842 89.7853L58.5321 75.4307L33.4258 95.1839L51.2842 89.7853Z" fill="black"/>
<path opacity="0.05" d="M32.7265 95.7972L51.7804 89.1835L2.33984 74.8164L32.7265 95.8097V95.7972Z" fill="black"/>
<path opacity="0.05" d="M33.0273 1.40332L10.3867 8.09211L58.7937 22.4718L33.0273 1.40332Z" fill="black"/>
<path opacity="0.05" d="M10.1613 8.58031L1.46875 22.3838L32.1169 1.74121L10.1613 8.58031Z" fill="black"/>
<path d="M98.4311 47.9492C97.9952 47.7988 97.5967 47.6986 97.2106 47.5483C93.7735 46.4085 88.0822 43.8031 88.5803 38.918C89.0162 34.772 91.9179 32.605 97.4597 32.3044C102.167 32.0539 106.775 34.2334 106.775 34.2334C107.074 34.3837 107.36 34.2334 107.51 33.9829C107.609 33.6822 107.51 33.3941 107.261 33.2438C107.061 33.1436 102.354 30.9767 97.3975 31.2272C91.3201 31.5779 88.0324 34.1332 87.5342 38.7802C86.8991 44.4544 93.1259 47.3604 96.8495 48.6005C97.248 48.7007 97.6341 48.851 98.0699 49.0013C102.292 50.279 109.253 52.4584 108.954 58.4207C108.655 64.6336 101.495 65.3225 98.456 65.3225C95.7038 65.3225 91.345 64.5834 87.3724 62.5543C87.1233 62.404 86.787 62.5042 86.6874 62.8048C86.538 63.0553 86.6376 63.3434 86.8867 63.4937C92.1296 66.2118 97.0861 66.3997 98.456 66.3997C101.059 66.3997 109.639 65.811 110.025 58.5084C110.374 51.6568 102.865 49.327 98.4062 47.9492H98.4311Z" fill="black"/>
<path d="M117.55 65.2596V32.5547C119.269 32.5547 124.661 32.5046 126.965 32.5547L127.401 32.6048C130.838 32.6549 140.004 32.9555 140.004 42.7633C140.004 49.1264 133.378 51.2432 129.904 51.4437C126.031 51.7443 122.345 51.6441 122.345 51.6441C121.996 51.6441 121.809 51.8946 121.809 52.1827C121.759 52.4833 122.008 52.7213 122.295 52.7213C122.345 52.7213 126.068 52.8215 129.941 52.5209C133.814 52.2704 141.025 49.903 141.025 42.7507C141.025 31.8533 130.776 31.6028 127.388 31.5025H126.99C124.238 31.4023 117.077 31.5025 116.99 31.5025C116.691 31.5025 116.504 31.703 116.504 31.9911V65.2346C116.504 65.5352 116.703 65.7732 116.99 65.7732C117.276 65.7732 117.525 65.5227 117.525 65.2346L117.55 65.2596Z" fill="black"/>
<path d="M147.923 31.5146C147.624 31.5146 147.438 31.7151 147.438 32.0032V65.2467C147.438 65.5473 147.637 65.7853 147.923 65.7853C148.21 65.7853 148.459 65.5348 148.459 65.2467V32.0032C148.459 31.7025 148.21 31.5146 147.923 31.5146Z" fill="black"/>
<path d="M181.546 42.0244C181.546 31.6655 171.932 31.5653 168.259 31.5152H167.524C164.772 31.415 157.611 31.5152 157.524 31.5152C157.225 31.5152 156.988 31.7658 157.038 32.0539C157.038 32.3545 157.237 32.5424 157.524 32.5424H157.573C157.573 32.5424 164.784 32.4422 167.474 32.5424C167.723 32.5424 167.96 32.5925 168.259 32.5925C171.932 32.5925 180.525 32.6927 180.525 42.0119C180.525 48.9637 172.779 50.0034 170.425 50.2038C166.552 50.4543 157.922 50.2539 157.822 50.2539C157.773 50.2539 157.723 50.2539 157.623 50.304C157.623 50.304 157.573 50.2539 157.524 50.2539C157.225 50.2539 157.038 50.5044 157.038 50.7925V65.2473C157.038 65.5479 157.237 65.7859 157.524 65.7859C157.81 65.7859 158.059 65.5354 158.059 65.2473V51.3311C158.893 51.3311 161.446 51.3812 164.186 51.3812C166.49 51.3812 168.894 51.3311 170.463 51.2309C175.855 50.8802 181.546 48.2748 181.546 42.0119V42.0244ZM183.016 64.9592L172.866 53.8112C172.667 53.6108 172.331 53.5607 172.132 53.7611C171.932 54.0116 171.883 54.2997 172.082 54.5502L182.231 65.6481C182.331 65.7984 182.481 65.8485 182.63 65.8485C182.779 65.8485 182.879 65.7984 182.979 65.6982C183.228 65.4978 183.228 65.1596 183.028 64.9592H183.016Z" fill="black"/>
<path d="M204.922 31.127C195.308 31.127 187.512 39.0182 187.512 48.6882C187.512 58.3581 195.308 66.2494 204.922 66.2494C214.536 66.2494 222.382 58.3581 222.382 48.6882C222.382 39.0182 214.536 31.127 204.922 31.127ZM204.922 65.1596C195.893 65.1596 188.545 57.7569 188.545 48.6882C188.545 39.6195 195.905 32.2167 204.922 32.2167C213.938 32.2167 221.298 39.6195 221.298 48.6882C221.298 57.7569 213.938 65.1596 204.922 65.1596Z" fill="black"/>
<path d="M254.503 31.5153C254.254 31.365 253.917 31.5153 253.818 31.7659L239.446 63.9322L225.224 31.7158C225.125 31.4652 224.788 31.3149 224.539 31.4652C224.24 31.5655 224.141 31.9036 224.24 32.1542L238.948 65.4478C239.048 65.6482 239.247 65.7985 239.434 65.7985C239.621 65.7985 239.82 65.6482 239.919 65.4478L254.727 32.2043C254.876 31.9036 254.727 31.6156 254.478 31.5153H254.503Z" fill="black"/>
<path d="M282.46 64.7208H260.779C260.48 64.7208 260.293 64.9713 260.293 65.2594C260.293 65.5475 260.492 65.798 260.779 65.798H282.46C282.759 65.798 282.996 65.5475 282.996 65.2594C282.996 64.9713 282.747 64.7208 282.46 64.7208ZM260.779 32.5545H282.46C282.759 32.5545 282.996 32.3039 282.996 32.0159C282.996 31.7278 282.747 31.5273 282.46 31.5273H260.779C260.48 31.5273 260.293 31.7278 260.293 32.0159C260.293 32.3039 260.492 32.5545 260.779 32.5545ZM260.779 49.0259H280.244C280.542 49.0259 280.779 48.8255 280.779 48.5374C280.779 48.2493 280.53 47.9988 280.244 47.9988H260.779C260.48 47.9988 260.293 48.2493 260.293 48.5374C260.293 48.8255 260.492 49.0259 260.779 49.0259Z" fill="black"/>
<path d="M315.048 64.9592L302.695 51.2434C308.037 50.805 313.579 48.1871 313.579 42.0244C313.579 31.6655 303.965 31.5653 300.291 31.5152H299.556C296.804 31.415 289.643 31.5152 289.556 31.5152C289.257 31.5152 289.07 31.7157 289.07 32.0037V65.2473C289.07 65.5479 289.27 65.7859 289.556 65.7859C289.842 65.7859 290.092 65.5354 290.092 65.2473V51.3311C291.461 51.3311 297.601 51.4814 301.374 51.281L314.276 65.6356C314.376 65.7859 314.525 65.836 314.675 65.836C314.824 65.836 314.924 65.7859 315.024 65.6857C315.273 65.4853 315.273 65.1471 315.073 64.9467L315.048 64.9592ZM290.079 50.2539V32.5424C291.798 32.5424 297.19 32.4923 299.494 32.5424C299.743 32.5424 299.98 32.5925 300.279 32.5925C303.952 32.5925 312.545 32.6927 312.545 42.0119C312.545 48.9637 304.799 50.0034 302.445 50.2038C298.958 50.4042 291.561 50.304 290.079 50.2539Z" fill="black"/>
<path d="M331.201 47.9492C330.765 47.7988 330.366 47.6986 329.98 47.5483C326.543 46.4085 320.852 43.8031 321.35 38.918C321.798 34.772 324.687 32.605 330.229 32.3044C334.937 32.0539 339.545 34.2334 339.545 34.2334C339.843 34.3837 340.13 34.2334 340.279 33.9829C340.379 33.6822 340.279 33.3941 340.03 33.2438C339.831 33.1436 335.124 30.9767 330.167 31.2272C324.09 31.5779 320.802 34.1332 320.304 38.7802C319.669 44.4544 325.895 47.3604 329.619 48.6005C330.018 48.7007 330.404 48.851 330.839 49.0013C335.061 50.279 342.023 52.4584 341.724 58.4207C341.425 64.6336 334.264 65.3225 331.226 65.3225C328.473 65.3225 324.115 64.5834 320.142 62.5543C319.893 62.404 319.557 62.5042 319.457 62.8048C319.307 63.0553 319.407 63.3434 319.656 63.4937C324.899 66.2118 329.856 66.3997 331.226 66.3997C333.828 66.3997 342.409 65.811 342.795 58.5084C343.144 51.6568 335.634 49.327 331.176 47.9492H331.201Z" fill="black"/>
<path d="M371.452 64.7209H350.319V49.0386H369.248C369.547 49.0386 369.784 48.8382 369.784 48.5501C369.784 48.262 369.535 48.0115 369.248 48.0115H350.319V32.5672H371.452C371.751 32.5672 371.988 32.3166 371.988 32.0285C371.988 31.7405 371.739 31.54 371.452 31.54H349.771C349.472 31.54 349.285 31.7405 349.285 32.0285V65.2721C349.285 65.5727 349.484 65.8107 349.771 65.8107H371.452C371.751 65.8107 371.988 65.5602 371.988 65.2721C371.988 64.984 371.739 64.7335 371.452 64.7335V64.7209Z" fill="black"/>
</g>
<defs>
<clipPath id="clip0_50_65">
<rect width="372" height="97" fill="white"/>
</clipPath>
</defs>
</svg>
