<svg width="258" height="37" viewBox="0 0 258 37" fill="none" xmlns="http://www.w3.org/2000/svg">
<path d="M20.4557 18.1828C26.5166 19.0638 29.5471 21.8652 29.5471 26.5871C29.5471 29.8292 28.5251 32.3837 26.4814 34.2514C24.4377 36.0837 21.7243 37 18.3414 37H0V0H16.5443C20.2795 0 23.1867 0.863333 25.2657 2.59C27.38 4.28145 28.4371 6.57192 28.4371 9.46145C28.4371 13.9719 25.7766 16.8791 20.4557 18.1828ZM8.24571 7.34717V14.9586H15.7514C18.3943 14.9586 19.7157 13.6019 19.7157 10.8886C19.7157 9.72571 19.3281 8.84476 18.5529 8.2457C17.7776 7.64665 16.7381 7.34717 15.4343 7.34717H8.24571ZM16.28 29.6529C19.3105 29.6529 20.8257 28.2786 20.8257 25.53C20.8257 24.2967 20.3852 23.3629 19.5043 22.7286C18.6586 22.0943 17.4781 21.7771 15.9629 21.7771H8.24571V29.6529H16.28ZM40.7476 37V0H49.3104V37H40.7476ZM89.3903 0V7.45287H78.8189V37H70.4672V7.45287H59.8958V0H89.3903Z" fill="#4039FF"/>
<path d="M129.324 0H143.807V37H135.614V5.39144L133.764 14.06L126.839 37H116.268L109.344 14.06L107.494 5.55V37H99.3008V0H113.784L119.757 21.3543L121.554 29.4415L123.351 21.4071L129.324 0ZM181.703 7.66428H165.793V14.1128H180.751V21.5129H165.793V29.3357H181.703V37H157.547V0H181.703V7.66428ZM218.527 7.66428H202.617V14.1128H217.576V21.5129H202.617V29.3357H218.527V37H194.371V0H218.527V7.66428ZM257.519 0V7.45287H246.947V37H238.596V7.45287H228.025V0H257.519Z" fill="#161F3A"/>
</svg>
