<svg width="321" height="270" viewBox="0 0 321 270" fill="none" xmlns="http://www.w3.org/2000/svg">
<path d="M320.498 191.64C319.508 188.76 317.158 187.8 314.498 187.6C311.768 187.39 309.008 187.58 306.268 187.54C304.348 187.51 301.698 188.04 301.758 185.13C301.818 182.36 304.388 182.72 306.368 182.72C310.418 182.72 314.458 182.72 318.608 182.72V179.35C313.218 179.35 308.078 179.28 302.928 179.38C300.728 179.43 298.548 181.64 298.158 183.81C297.628 186.77 298.628 189.3 300.968 190.3C302.148 190.81 303.498 191.12 304.778 191.17C307.938 191.29 311.118 191.05 314.258 191.32C315.258 191.41 316.768 192.52 316.978 193.41C317.368 195.07 315.818 195.52 314.388 195.63C313.728 195.68 313.058 195.66 312.388 195.66C308.558 195.66 304.728 195.66 300.908 195.66C297.858 195.67 297.798 195.76 298.408 199.22C303.918 199.22 309.478 199.33 315.028 199.14C316.308 199.1 317.738 198.25 318.778 197.39C320.538 195.93 321.328 193.98 320.518 191.61L320.498 191.64Z" fill="#0E6D47"/>
<path d="M87.5195 80.3702C87.6295 80.5702 87.7395 80.7802 87.8495 80.9802C88.6995 80.6802 89.6095 80.4902 90.3795 80.0502C93.7395 78.1302 97.1995 77.0702 101.2 77.0802C104.8 77.0802 108.46 76.2902 111.98 75.3802C117.45 73.9602 117.99 74.0802 119.94 78.1402C121.41 81.2102 121.64 81.0702 118.65 83.1302C117.75 83.7502 116.97 84.5302 116.13 85.2302C116.29 85.4602 116.46 85.6902 116.62 85.9202C118.62 85.2202 120.66 84.6002 122.62 83.7902C124.07 83.2002 125.07 83.6002 126.15 84.5802C132.11 89.9802 139.19 93.5602 146.53 96.5902C154.96 100.07 163.54 103.24 168.58 111.66C172.02 108.31 172.69 102.83 170.27 98.9902C168.14 95.6202 164.84 93.6802 161.38 92.0802C157.73 90.3902 153.94 89.0202 149.81 87.3502C151.86 84.1102 153.51 80.7302 155.86 77.9402C162.9 69.6002 166.55 60.1502 166.5 49.2302C166.48 45.8602 168.49 43.5702 171.78 43.1302C178.78 42.1802 184.92 39.5702 189.03 33.5802C190.89 30.8802 192.14 27.7702 193.76 24.8902C196.02 20.8602 198.36 16.8702 200.76 12.7002C195.82 15.5602 192.5 19.6502 190.13 24.6002C186.74 31.6802 181.3 36.3102 173.6 37.9802C172.41 38.2402 170.48 37.6202 169.72 36.7102C168.74 35.5502 168.02 33.6202 168.19 32.1402C168.7 27.7102 169.85 23.3502 170.44 18.9202C170.85 15.8202 171.23 12.5802 170.74 9.54023C170.28 6.68023 168.67 4.00023 167.56 1.24023C167.26 1.36023 166.96 1.47023 166.66 1.59023C167.14 3.14023 167.89 4.66023 168.06 6.25023C168.64 11.6202 168.08 16.7902 165.52 21.7302C163.14 26.3302 162.76 31.2802 164.44 36.2402C165.9 40.5302 165.97 40.5002 162.24 43.9302C158.91 40.7502 155.55 37.5802 152.24 34.3502C151.18 33.3202 150.26 32.9602 149.2 34.2302L149.27 34.1602C148.68 36.0802 149.36 37.5102 150.88 38.7402C151.9 39.5702 152.71 40.6402 153.66 41.5602C161.65 49.2002 160.83 63.4802 152.07 70.7602C150.51 72.0602 149.37 72.1402 147.77 70.7502C142.42 66.0902 136.88 61.6402 131.54 56.9702C128.43 54.2502 125.55 51.2502 122.58 48.3802C122.58 48.3702 122.58 48.3502 122.58 48.3302C122.55 48.3202 122.52 48.3102 122.49 48.2902C122.49 48.2902 122.5 48.3002 122.52 48.3202C122.52 48.3202 122.5 48.3002 122.49 48.2902L122.57 48.3702C118.6 44.7902 116.03 40.3402 114.53 35.2502C113.88 33.0302 113.42 30.7602 112.87 28.5202C112.65 28.5402 112.43 28.5702 112.21 28.5902V34.8702C110.61 34.2702 109.4 33.8202 108.19 33.3602L107.53 34.2302C108.17 34.6002 108.82 34.9502 109.45 35.3402C111.62 36.7002 112.98 38.5802 114 41.0002C115.31 44.0902 116.84 47.2502 118.96 49.8202C123.89 55.8002 129.23 61.4402 134.4 67.2302C137.55 70.7602 140.93 74.2102 141.97 79.0002C142.26 80.3502 141.52 82.1902 140.68 83.4202C140.28 84.0002 138.36 84.0902 137.44 83.6902C127.31 79.2802 121.22 72.1502 121.49 60.4202C121.66 53.1102 118.5 48.6802 112.62 47.1102C103.68 44.7202 96.9895 39.4902 92.1895 31.6802C91.0695 29.8602 89.8495 28.1102 88.6795 26.3302C88.4995 26.4402 88.3195 26.5502 88.1395 26.6602C89.5895 30.1202 91.0295 33.5802 92.4795 37.0602C90.6295 37.5202 88.9395 37.9402 87.2495 38.3602C88.5695 39.1702 89.8495 39.5002 91.1395 39.6402C93.3295 39.8702 95.2095 40.4002 96.8295 42.1802C101.73 47.5402 107.16 52.1902 114.64 53.6602C115.14 53.7602 115.78 54.9702 115.76 55.6402C115.65 59.2102 115.3 62.7702 115.13 66.3402C115.04 68.1802 114.09 69.2302 112.48 69.8402C109.47 70.9802 106.51 72.3202 103.41 73.1702C101.07 73.8102 98.4795 74.3102 96.1395 73.9602C94.1495 73.6702 92.3695 72.0402 90.4595 71.0702C87.8395 69.7402 85.1795 68.4702 82.5295 67.1802C82.3595 67.4802 82.1895 67.7902 82.0195 68.0902C85.5495 70.6602 89.0895 73.2302 92.6995 75.8602C90.7895 77.5102 89.1395 78.9302 87.4895 80.3602L87.5195 80.3702Z" fill="#0E6D47"/>
<path d="M209.13 85.4403C206.88 83.1203 204.63 80.7903 202.7 78.7903C204.16 75.1803 206.5 74.3603 209.58 74.7803C212.87 75.2203 216.19 75.6003 219.5 75.7503C224.54 75.9803 229.35 76.8403 233.68 79.6203C234.15 79.9203 234.78 79.9703 235.33 80.1403C235.41 79.9903 235.5 79.8403 235.58 79.6803C234.08 78.0903 232.58 76.5103 230.91 74.7403C234.71 72.2103 238.31 69.8203 241.9 67.4303L241.56 66.8703C237.65 68.4103 233.78 70.0803 229.81 71.4303C227.91 72.0803 225.75 72.6303 223.83 72.3703C219.82 71.8203 215.89 70.7003 211.92 69.8303C208.73 69.1303 207.95 68.4303 207.75 65.2403C207.03 53.8003 211.63 44.3903 223.23 39.9403C225.16 39.2003 227.11 38.5403 229.05 37.8503C222.7 36.9203 217.1 38.8803 211.77 41.8203C210.53 38.5603 211.67 34.8003 208.89 32.0703C208.71 32.4203 208.57 32.5603 208.58 32.6903C208.59 33.1003 208.61 33.5303 208.71 33.9303C209.8 38.2403 209.27 42.4003 207.07 46.2003C203.77 51.9003 202.24 57.9503 202.61 64.5303C202.81 68.1103 201.23 70.9903 198.52 73.1803C196.73 74.6303 194.71 75.8003 192.8 77.0903C190.34 78.7403 188.95 77.9303 188.55 74.9303C188 70.8203 188.81 66.8903 189.33 62.8503C190.39 54.7003 189.46 46.6303 186.87 38.8003C183.69 39.2403 182.7 40.6703 183.17 43.7703C184.2 50.4703 184.4 57.1103 182.11 63.6803C179.86 70.1303 177.94 72.3103 170.3 69.2403C168.85 68.6603 167.41 68.0103 165.91 67.5903C165.32 67.4303 164.26 67.5903 163.98 67.9903C163.01 69.3703 162.3 70.9203 161.45 72.4703C166.62 75.5803 172.79 76.5803 176.56 81.9703C170.64 83.3403 165.48 85.5703 160.93 89.9603C163.47 91.5603 165.81 92.8103 167.88 94.4203C169.49 95.6703 170.85 95.5503 172.42 94.6203C180.39 89.8703 188.81 86.0703 197.49 82.8203C199.78 81.9603 201.69 81.9303 203.76 83.3103C205.34 84.3603 207.14 85.0603 208.85 85.9203C208.95 85.7703 209.04 85.6103 209.14 85.4603L209.13 85.4403Z" fill="#0E6D47"/>
<path d="M172.968 151.28C165.978 146.96 159.708 141.62 154.948 134.78C152.748 131.62 150.778 128.3 148.508 124.76C144.458 131.11 145.728 137.77 146.458 143.74C145.238 144.92 144.198 145.73 143.408 146.73C139.108 152.22 134.718 157.62 128.928 161.66C126.788 163.16 124.698 164.72 122.578 166.25C122.668 166.5 122.748 166.74 122.838 166.99C124.188 166.68 125.558 166.45 126.878 166.05C131.378 164.67 135.838 163.17 140.348 161.83C143.498 160.89 144.848 161.92 145.058 165.21C145.108 165.98 145.188 166.76 145.268 167.72C146.008 167.51 146.448 167.48 146.778 167.28C149.888 165.44 153.048 163.66 156.068 161.67C158.078 160.34 158.858 161.01 159.288 163.04C159.628 164.62 160.058 166.17 160.558 168.22C162.298 166.98 163.958 166.05 165.308 164.79C166.718 163.47 167.818 161.83 169.158 160.2C171.398 162.29 173.568 164.32 175.818 166.43C176.248 165.92 176.678 165.53 176.948 165.05C178.878 161.62 180.358 161.13 184.068 162.52C187.778 163.9 191.518 165.21 195.268 166.46C196.658 166.92 198.148 167.11 199.588 167.42C199.678 167.2 199.758 166.98 199.848 166.77C199.208 166.34 198.588 165.85 197.918 165.47C189.588 160.76 181.098 156.32 172.968 151.29V151.28Z" fill="#0E6D47"/>
<path d="M165.989 111.14C162.729 106.03 158.369 102.14 152.079 101.23C151.359 101.13 149.949 101.92 149.759 102.56C147.839 109.1 147.859 115.65 150.259 122.09C154.179 132.6 161.269 140.7 169.999 147.45C172.999 149.78 176.289 151.73 179.449 153.85C179.669 153.64 179.879 153.44 180.099 153.23C175.339 145.68 170.579 138.13 168.479 129.33C169.349 130.87 170.219 132.41 171.089 133.95C171.909 125.63 170.359 117.98 165.989 111.13V111.14Z" fill="#0E6D47"/>
<path d="M149.95 32.3302C152.7 28.9702 155.01 25.4302 155.79 21.0402C156.21 18.6702 156.82 16.3402 157.24 14.4602C159.16 15.5002 161.03 16.6402 163.02 17.5002C163.43 17.6802 164.79 16.8902 164.87 16.4002C165.21 14.3902 162.52 10.6502 160.06 9.65016C157.96 8.80016 155.79 8.27016 154.88 11.5002C151.95 9.12016 150.25 5.82016 146.94 4.41016C148.78 7.34016 151.07 9.85016 152.91 12.6702C153.69 13.8702 154.19 16.0202 153.64 17.1702C151.72 21.1802 149.16 24.8602 147.1 28.8102C145.56 31.7602 143.88 34.8102 143.21 38.0202C141.81 44.7102 143.18 51.2302 146.42 57.2002C148.24 60.5502 150.64 63.5802 152.8 66.7802C156.27 64.0702 156.83 61.1402 154.9 58.2102C153.68 56.3602 152.35 54.5602 151.36 52.5902C148.96 47.8502 146.59 43.0302 147.61 37.4602C147.82 36.3002 148.72 35.2602 149.31 34.1702C149.31 34.1702 149.24 34.2402 149.23 34.2402C149.47 33.6002 149.57 32.8202 149.98 32.3202L149.95 32.3302Z" fill="#0E6D47"/>
<path d="M293.292 187.89C294.602 184.07 292.252 179.491 288.552 179.381C282.742 179.211 276.932 179.34 270.722 179.34C270.722 185.7 270.682 191.74 270.792 197.79C270.792 198.29 271.862 199.19 272.442 199.2C277.592 199.31 282.752 199.35 287.902 199.23C292.022 199.13 294.652 194.91 293.312 191.03C292.982 190.08 292.962 188.84 293.292 187.89ZM288.202 195.34C288.052 195.43 287.902 195.481 287.752 195.491C283.452 195.681 279.132 195.58 274.702 195.58V191.26C279.112 191.26 283.422 191.15 287.712 191.36C287.952 191.37 288.182 191.511 288.402 191.711C289.512 192.711 289.492 194.57 288.202 195.34ZM287.542 187.39C283.332 187.62 279.112 187.5 274.712 187.5V182.8C279.142 182.8 283.432 182.68 287.712 182.91C288.502 182.95 289.792 183.85 289.792 185.12C289.792 186.87 288.382 187.35 287.542 187.4V187.39Z" fill="#0E6D47"/>
<path d="M107.57 193.22C103.37 189.15 99.2997 185.64 95.7797 181.63C93.7197 179.28 91.6397 179.03 88.9297 179.53V199.13H92.5897V184.67C93.5597 185.52 94.1297 185.96 94.6297 186.46C98.0897 189.97 101.67 193.38 104.95 197.06C106.8 199.13 108.77 199.69 111.42 199.07V179.49H107.58V193.23L107.57 193.22Z" fill="#0E6D47"/>
<path d="M49.4806 193.43C45.3806 189.37 41.4106 185.89 38.0206 181.92C35.9806 179.53 33.9006 178.92 30.8906 179.53V199.1H34.6806V184.68C35.6306 185.55 36.1806 186.02 36.6906 186.54C40.1506 190.05 43.7206 193.48 47.0206 197.13C48.8706 199.17 50.8406 199.75 53.4506 198.99V179.53H49.4706V193.44L49.4806 193.43Z" fill="#0E6D47"/>
<path d="M167.971 186.66C167.401 183.45 164.021 179.59 161.171 179.46C155.961 179.22 150.731 179.39 145.371 179.39V199.26C149.681 199.26 153.681 199.1 157.661 199.3C164.161 199.63 169.281 194.1 167.971 186.65V186.66ZM149.281 195.54V182.81C152.711 182.81 156.031 182.63 159.321 182.87C162.131 183.07 164.421 186.3 164.351 189.4C164.281 192.45 162.101 195.26 159.171 195.49C155.961 195.74 152.711 195.55 149.281 195.55V195.54Z" fill="#0E6D47"/>
<path d="M22.1896 181.02C20.5796 180.17 18.7496 179.75 16.8896 179.37L14.4196 179.33C14.4196 179.33 14.3696 179.33 14.3496 179.33C14.3196 179.33 14.2896 179.33 14.2696 179.33H13.4896C13.4896 179.33 13.4196 179.31 13.3796 179.31L9.34962 179.24C9.34962 179.24 7.96962 179.33 6.95962 179.64C3.63962 180.58 0.81962 183.46 0.19962 186.85C-0.71038 191.78 1.48962 197.09 5.62962 198.18C9.14962 199.11 12.9596 199.11 16.6496 199.21C21.1996 199.34 24.6696 196.53 26.1696 191.91C27.3996 188.12 25.8696 182.95 22.1896 181.01V181.02ZM16.4596 195.43C15.3796 195.45 14.2996 195.43 13.2196 195.43C12.0596 195.43 10.8896 195.45 9.72962 195.43C6.17962 195.33 3.59962 192.77 3.56962 189.35C3.53962 185.85 6.24962 182.97 9.70962 182.88C11.9496 182.82 14.1896 182.84 16.4396 182.88C20.2296 182.94 22.7696 185.56 22.7396 189.33C22.7096 193.11 20.3796 195.38 16.4596 195.44V195.43Z" fill="#0E6D47"/>
<path d="M84.5199 189.06C84.4499 183.59 80.2999 179.36 74.9599 179.32C73.7099 179.32 72.4599 179.32 71.2099 179.32C69.8799 179.32 68.5499 179.31 67.2099 179.32C62.8799 179.37 58.9399 182.73 58.1399 187.04C57.2399 191.89 59.5199 197.13 63.7899 198.23C67.3999 199.16 71.2899 199.17 75.0699 199.22C80.2999 199.3 84.5899 194.52 84.5199 189.06ZM71.0699 195.44C69.9899 195.44 68.9099 195.46 67.8299 195.44C64.1299 195.36 61.5599 192.79 61.5799 189.21C61.5999 185.71 64.3199 182.95 67.8599 182.88C70.0199 182.84 72.1799 182.85 74.3299 182.88C78.1899 182.93 80.6899 185.44 80.6899 189.22C80.6899 193.19 78.4399 195.39 74.2999 195.44C73.2199 195.45 72.1399 195.44 71.0599 195.44H71.0699Z" fill="#0E6D47"/>
<path d="M182.06 180.64C180.11 184.28 178.18 187.93 176.28 191.59C175.02 194.02 173.82 196.48 172.59 198.93C172.79 199.19 172.99 199.44 173.19 199.7C174.61 199.19 176.9 199.03 177.29 198.09C178.59 194.92 180.72 194.28 183.74 194.61C185.55 194.81 187.41 194.78 189.23 194.61C191.01 194.44 192.18 195.11 192.68 196.71C193.58 199.58 195.58 199.65 198.37 198.97C195.03 192.55 191.86 186.38 188.62 180.27C187.75 178.64 182.99 178.95 182.08 180.65L182.06 180.64ZM181.35 190.88C182.68 188.14 183.91 185.61 185.37 182.59C186.82 185.53 188.08 188.08 189.47 190.88H181.35Z" fill="#0E6D47"/>
<path d="M140.899 198.65C137.839 192.7 134.819 186.74 131.669 180.84C131.299 180.14 130.209 179.38 129.489 179.41C127.889 179.47 125.879 178.38 124.769 180.52C121.619 186.6 118.499 192.68 115.359 198.78C118.739 199.85 119.729 199.57 120.909 196.71C121.559 195.13 122.489 194.57 124.119 194.62C126.779 194.7 129.459 194.72 132.119 194.62C133.849 194.55 134.819 195.11 135.479 196.83C136.549 199.57 138.069 199.98 140.899 198.66V198.65ZM124.059 190.88C125.389 188.18 126.619 185.66 128.099 182.66C129.569 185.51 130.849 188 132.329 190.88H124.059Z" fill="#0E6D47"/>
<path d="M255.87 179.39C253.05 178.54 250.92 179.52 249.53 182.18C248.85 183.49 248.08 184.75 247.4 186.07C245.22 190.3 243.06 194.54 240.77 199.02C242.72 199.18 244.88 200.18 245.6 198.12C246.88 194.46 249.49 194.44 252.5 194.62C254.32 194.73 256.19 194.43 257.97 194.72C258.97 194.88 260.21 195.66 260.69 196.52C262.25 199.37 262.82 199.73 266.5 198.86C263.31 192.63 260.16 186.43 256.96 180.26C256.76 179.88 256.29 179.51 255.88 179.39H255.87ZM249.62 190.75C250.88 188.19 252.11 185.68 253.63 182.6C255.12 185.55 256.36 188.01 257.74 190.75H249.62Z" fill="#0E6D47"/>
<path d="M125.499 46.9698C128.389 40.9398 131.639 35.0598 134.079 28.8498C135.989 23.9998 136.629 18.7498 135.549 13.4898C135.319 13.4298 135.079 13.3698 134.849 13.3198C133.809 17.6298 132.769 21.9298 131.769 26.0898C128.549 23.0798 125.579 19.8998 122.189 17.2598C118.779 14.5998 114.819 12.7998 110.539 11.8398C111.339 12.5598 112.189 13.1798 113.099 13.6998C118.589 16.8198 123.229 20.8298 126.609 26.2298C128.269 28.8898 128.309 31.4998 126.629 34.1598C125.259 36.3198 124.089 38.6298 122.549 40.6598C120.699 43.0998 119.729 45.3098 122.549 47.6698C122.669 47.7698 122.589 48.0898 122.589 48.3398C124.099 49.0898 124.889 48.2498 125.499 46.9598V46.9698Z" fill="#0E6D47"/>
<path d="M215.799 179.46V199.26C222.429 199.26 228.739 199.28 235.049 199.22C235.569 199.22 236.459 198.72 236.509 198.35C236.629 197.61 236.509 196.6 236.059 196.09C235.689 195.66 234.689 195.69 233.959 195.69C229.239 195.66 224.519 195.67 219.529 195.67V179.46H215.789H215.799Z" fill="#0E6D47"/>
<path d="M179.399 34.1897C181.789 34.2197 183.429 33.0697 183.399 30.8497C183.339 27.1897 184.819 24.0997 186.389 20.9897C188.509 16.7797 189.349 12.2997 188.499 7.68973C188.049 5.28973 186.829 3.03973 185.959 0.719727C185.709 0.839727 185.459 0.949727 185.209 1.06973C186.349 8.95973 186.349 13.1197 181.419 21.4797C179.189 25.2697 178.319 29.6697 179.389 34.1897H179.399Z" fill="#0E6D47"/>
<path d="M100.94 69.5798C102.17 62.9298 94.7301 56.0698 89.6401 56.3398C88.9601 56.3798 87.7401 57.3298 87.7501 57.8398C87.8901 64.5898 95.2701 70.7097 100.95 69.5697L100.94 69.5798Z" fill="#0E6D47"/>
<path d="M162.919 254.74C162.009 258.42 159.309 259.65 155.539 260.37C159.749 262.22 158.499 265.55 158.679 269.12C161.689 265.59 164.499 266.86 167.419 268.42C165.859 264.67 168.059 262.27 170.429 259.41C166.149 260.15 164.299 258.22 162.919 254.74Z" fill="#0E6D47"/>
<path d="M219.73 32.04C222.31 28.27 222.31 23.0199 219.68 19.1799C218.54 17.5199 217.46 17.7899 216.76 19.3299C215.83 21.3799 215.22 23.5799 214.41 25.8999C215.26 28.1199 215.86 30.2499 216.88 32.1399C217.59 33.4599 218.71 33.5299 219.73 32.0299V32.04Z" fill="#0E6D47"/>
<path d="M115.879 75.5601C113.049 75.4701 108.859 79.5701 108.739 82.4901C108.709 83.1301 109.329 83.8001 109.519 84.1901C113.119 84.2601 117.559 80.0101 117.429 77.0801C117.409 76.5301 116.439 75.5801 115.889 75.5601H115.879Z" fill="#0E6D47"/>
<path d="M130.891 44.2397C131.071 47.8697 135.351 51.3697 139.321 51.1697C139.791 47.1197 136.101 42.5597 132.391 42.6197C131.861 42.6197 130.861 43.6997 130.891 44.2397Z" fill="#0E6D47"/>
<path d="M218.8 85.3498C218.74 85.7498 219.57 86.6898 219.97 86.6798C223.24 86.5698 228.81 82.1398 227.2 78.0898C223.11 77.4298 219.34 81.6098 218.8 85.3498Z" fill="#0E6D47"/>
<path d="M168.371 65.5105C168.301 66.0405 169.161 67.2205 169.631 67.2405C173.491 67.4005 177.191 63.1505 176.841 59.0105C172.441 58.0505 168.781 62.5605 168.371 65.5205V65.5105Z" fill="#0E6D47"/>
<path d="M138 260.5C138.43 262.87 138.75 264.67 139.13 266.79C140.93 264.55 142.84 265.28 144.16 266C144.85 264.03 145.47 262.28 146.02 260.71C144.75 259.86 143.28 258.87 141.57 257.73C140.43 258.62 138.97 259.75 138 260.5Z" fill="#0E6D47"/>
<path d="M132.739 10.1501C132.949 8.88014 132.829 7.76014 131.019 7.99014C127.279 8.46014 123.939 12.6801 124.369 16.6301C128.299 16.7901 132.149 13.7801 132.739 10.1501Z" fill="#0E6D47"/>
<path d="M149.638 19.6401C149.768 15.3101 146.968 11.7601 143.098 11.1201C141.818 10.9101 141.188 11.2801 141.268 12.6601C141.488 16.4201 145.588 19.9401 149.628 19.6401H149.638Z" fill="#0E6D47"/>
<path d="M179.621 0.160016C175.061 -0.749984 170.851 3.18002 171.321 8.12002C176.271 8.12002 179.681 4.79002 179.621 0.160016Z" fill="#0E6D47"/>
<path d="M195.321 37.0995C194.901 40.8295 198.271 45.1495 201.861 45.2695C202.421 45.2895 203.471 44.4195 203.521 43.8895C203.831 40.2595 198.991 36.3295 195.321 37.0995Z" fill="#0E6D47"/>
<path d="M107.519 31.6801C109.079 31.8301 109.679 31.2801 109.349 29.6701C108.559 25.8601 104.969 23.1501 100.859 23.5201C101.009 27.8501 103.919 31.3401 107.519 31.6801Z" fill="#0E6D47"/>
<path d="M197.011 23.0999C197.801 26.7499 201.221 30.2399 205.251 29.7299C206.011 25.8799 202.441 21.3599 198.601 21.2599C197.301 21.2299 196.731 21.8299 197.011 23.0999Z" fill="#0E6D47"/>
<path d="M223.391 70.5605C228.471 70.3405 231.931 66.8105 231.431 62.5405C226.771 61.7905 222.691 65.7705 223.391 70.5605Z" fill="#0E6D47"/>
<path d="M192.78 8.25026C196.52 7.57026 199.3 4.29026 199.48 0.0402643C195.37 -0.419736 191.23 2.78026 190.91 6.51026C190.8 7.87026 191.25 8.52026 192.78 8.25026Z" fill="#0E6D47"/>
<path d="M180.059 260.98C181.129 266.19 181.989 266.77 186.469 265.53C186.999 263.89 187.449 262.48 188.019 260.69C186.869 259.77 185.409 258.61 184.319 257.74C182.769 258.92 181.449 259.92 180.059 260.98Z" fill="#0E6D47"/>
<path d="M143.422 21.7103C143.802 23.8403 144.152 25.9803 144.602 28.1003C144.702 28.5603 145.122 28.9503 145.392 29.3703C145.652 28.8603 146.222 28.2803 146.122 27.8603C145.612 25.7303 144.932 23.6403 144.312 21.5303C144.022 21.5903 143.722 21.6403 143.432 21.7003L143.422 21.7103Z" fill="#0E6D47"/>
<path d="M70.2109 154.61C68.8309 154.61 67.7109 153.49 67.7109 152.11V106.49H116.991C118.371 106.49 119.491 107.61 119.491 108.99C119.491 110.37 118.371 111.49 116.991 111.49H72.7109V152.11C72.7109 153.49 71.5909 154.61 70.2109 154.61Z" fill="#0E6D47"/>
<path d="M253.71 154.61C255.09 154.61 256.21 153.49 256.21 152.11V106.49H206.93C205.55 106.49 204.43 107.61 204.43 108.99C204.43 110.37 205.55 111.49 206.93 111.49H251.21V152.11C251.21 153.49 252.33 154.61 253.71 154.61Z" fill="#0E6D47"/>
<path d="M253.71 216.52C255.09 216.52 256.21 217.64 256.21 219.02V264.64H206.93C205.55 264.64 204.43 263.52 204.43 262.14C204.43 260.76 205.55 259.64 206.93 259.64H251.21V219.02C251.21 217.64 252.33 216.52 253.71 216.52Z" fill="#0E6D47"/>
<path d="M70.2109 216.52C68.8309 216.52 67.7109 217.64 67.7109 219.02V264.64H116.991C118.371 264.64 119.491 263.52 119.491 262.14C119.491 260.76 118.371 259.64 116.991 259.64H72.7109V219.02C72.7109 217.64 71.5909 216.52 70.2109 216.52Z" fill="#0E6D47"/>
</svg>
