<svg width="512" height="93" viewBox="0 0 512 93" fill="none" xmlns="http://www.w3.org/2000/svg">
<path fill-rule="evenodd" clip-rule="evenodd" d="M87.5775 91.6523C84.3135 89.9108 80.8495 86.7563 70.1716 75.8023C37.8508 42.6455 9.00116 50.7648 10.3921 44.1576C11.7618 37.6528 41.3305 27.5951 69.0754 13.8927C97.4231 -0.107477 97.3661 -0.0870627 103.083 1.58726C109.096 3.34836 107.485 1.5205 144.492 48.5595C162.954 72.0263 169.298 79.8575 169.893 79.9172C170.815 80.0094 187.302 56.6579 187.465 55.0299C187.533 54.3452 174.337 35.3798 169.859 29.7273L167.832 27.1687L165.941 28.8044C164.9 29.7041 162.027 32.4085 159.556 34.8142C155.707 38.56 152.896 45.1116 150.716 47.1047C148.441 46.0875 147.766 45.8887 147.66 45.8781C146.768 45.7887 142.487 39.7863 142.892 39.1927C144.412 36.9607 164.419 19.9459 165.643 19.826C169.674 19.4311 171.092 21.8774 184.091 40.5312C191.929 51.778 192.331 52.5979 192.147 56.9833L192.049 59.3203L190.561 61.9092C188.439 65.6004 179.029 80.3579 176.496 83.9683C173.488 88.2532 171.858 89.2275 168.73 88.6078C166.106 88.0876 164.169 85.8915 141.921 58.2107C108.978 17.222 102.779 9.8298 101.563 10.0858C99.2241 10.5787 50.2569 36.121 50.1679 37.0104C50.0457 38.2315 89.3447 79.7963 92.3922 81.7586C94.4699 83.0963 95.7894 81.3073 109.01 69.6467C109.813 68.9384 114.564 64.662 119.567 60.1437C124.571 55.6253 129.012 51.6349 129.436 51.2758L130.207 50.6235L133.956 51.7778C136.646 54.9932 136.135 57.798 135.772 58.1707C135.008 58.9555 121.218 72.5765 116.887 76.8243C103.125 90.3221 100.485 92.2248 94.982 92.6146C91.5732 92.8562 89.2729 92.5572 87.5775 91.6523Z" fill="#DFDFDF"/>
<path fill-rule="evenodd" clip-rule="evenodd" d="M191.355 54.7477C192.874 57.5419 190.502 60.8576 187.368 60.3194L162.964 56.128C162.285 56.0114 161.904 55.2792 162.199 54.6561C162.362 54.3097 162.703 54.0812 163.085 54.0611L187.813 52.765C189.277 52.6883 190.654 53.4595 191.355 54.7477Z" fill="#313131"/>
<path fill-rule="evenodd" clip-rule="evenodd" d="M53.6053 39.6991C54.5864 42.2166 52.83 44.9599 50.1338 45.1213L2.3613 47.9806C0.316413 48.103 -0.587677 45.4512 1.10576 44.2981C1.30688 44.1611 1.53112 44.0617 1.76762 44.0046L47.3013 33.0121C49.2375 32.5447 51.221 33.5806 51.9445 35.4371L53.6053 39.6991Z" fill="#313131"/>
<path fill-rule="evenodd" clip-rule="evenodd" d="M92.9882 91.0856C89.8551 89.4139 86.5299 86.3859 76.2802 75.8711C45.2551 44.0435 44.5573 43.1463 45.8924 36.804C47.2071 30.56 48.5953 29.5965 75.2278 16.4434C102.438 3.00449 102.384 3.02408 107.872 4.63127C113.644 6.32177 112.098 4.56719 147.621 49.7204C165.343 72.2464 171.432 79.7636 172.004 79.8209C172.888 79.9095 188.715 57.4941 188.871 55.9314C188.937 55.2742 176.27 37.0691 171.971 31.6432L170.025 29.1871L168.209 30.7573C167.211 31.621 164.453 34.2169 162.081 36.5261C155.955 42.4885 150.919 47.1723 150.661 47.1465C149.805 47.0607 145.696 41.2989 146.084 40.7291C147.544 38.5866 166.749 22.254 167.924 22.1389C171.793 21.7598 173.154 24.108 185.633 42.0139C193.156 52.8099 193.542 53.5969 193.365 57.8065L193.271 60.0498L191.842 62.5349C189.806 66.0781 180.773 80.244 178.341 83.7096C175.455 87.8227 173.889 88.758 170.887 88.1632C168.368 87.6638 166.509 85.5558 145.153 58.9846C113.531 19.6392 107.58 12.5434 106.413 12.7892C104.167 13.2623 57.1638 37.7806 57.0784 38.6343C56.9611 39.8065 94.6846 79.7049 97.6102 81.5886C99.6042 82.8726 100.871 81.1553 113.561 69.9622C114.333 69.2823 118.893 65.1774 123.696 60.8401C128.498 56.5029 132.761 52.6725 133.168 52.3278L133.908 51.7016L136.773 55.1253C139.355 58.2118 139.599 58.5885 139.251 58.9463C138.517 59.6996 125.28 72.7745 121.123 76.852C107.912 89.8087 105.379 91.6351 100.096 92.0093C96.8237 92.2412 94.6156 91.9542 92.9882 91.0856Z" fill="#313131"/>
<path d="M222.797 83.9649V28.0859H230.131L250.387 70.1116L270.527 28.0859H277.939V83.9261H270.256V45.7033L252.211 83.9649H248.525L230.442 45.7033V83.9649H222.797Z" fill="#313131"/>
<path d="M302.74 85.1281C298.575 85.1281 294.914 84.2227 291.758 82.4118C288.628 80.575 286.183 78.0268 284.424 74.7672C282.691 71.4818 281.824 67.6789 281.824 63.3586C281.824 58.7797 282.678 54.8086 284.385 51.4455C286.118 48.0825 288.524 45.4825 291.603 43.6458C294.681 41.809 298.264 40.8906 302.352 40.8906C306.62 40.8906 310.255 41.8866 313.256 43.8786C316.257 45.8447 318.495 48.6516 319.969 52.2992C321.47 55.9469 322.065 60.2801 321.754 65.2989H313.644V62.3497C313.592 57.4862 312.661 53.8902 310.85 51.562C309.065 49.2337 306.336 48.0695 302.662 48.0695C298.601 48.0695 295.548 49.3501 293.504 51.9112C291.461 54.4723 290.439 58.1717 290.439 63.0094C290.439 67.6142 291.461 71.1843 293.504 73.7195C295.548 76.2289 298.497 77.4836 302.352 77.4836C304.887 77.4836 307.073 76.9144 308.91 75.7762C310.772 74.612 312.221 72.9564 313.256 70.8092L321.211 73.3315C319.581 77.0826 317.111 79.993 313.799 82.0625C310.488 84.1063 306.801 85.1281 302.74 85.1281ZM287.8 65.2989V58.9737H317.718V65.2989H287.8Z" fill="#313131"/>
<path d="M349.786 83.9648C347.147 84.4822 344.56 84.7021 342.025 84.6245C339.49 84.5469 337.226 84.0553 335.234 83.1499C333.242 82.2444 331.742 80.8216 330.733 78.8814C329.828 77.1481 329.336 75.3889 329.258 73.6039C329.207 71.793 329.181 69.7493 329.181 67.4727V30.4141H337.33V67.0847C337.33 68.7662 337.343 70.2279 337.369 71.4696C337.42 72.7114 337.692 73.7591 338.184 74.6128C339.115 76.2168 340.589 77.1351 342.607 77.368C344.651 77.5749 347.044 77.4844 349.786 77.0963V83.9648ZM321.148 48.5748V42.0556H349.786V48.5748H321.148Z" fill="#313131"/>
<path d="M365.801 85.1281C362.697 85.1281 360.097 84.559 358.001 83.4207C355.906 82.2566 354.315 80.7303 353.228 78.8417C352.168 76.9274 351.637 74.8319 351.637 72.5554C351.637 70.434 352.012 68.5714 352.763 66.9675C353.513 65.3635 354.625 64.0054 356.1 62.893C357.574 61.7547 359.385 60.8363 361.533 60.1378C363.395 59.5946 365.504 59.116 367.858 58.702C370.212 58.2881 372.682 57.9001 375.269 57.5379C377.882 57.1757 380.469 56.8135 383.03 56.4514L380.081 58.0812C380.133 54.7957 379.434 52.3639 377.986 50.7859C376.563 49.1819 374.105 48.38 370.613 48.38C368.414 48.38 366.396 48.8974 364.559 49.9322C362.723 50.9411 361.442 52.6226 360.718 54.9768L353.151 52.6485C354.185 49.0526 356.152 46.194 359.049 44.0726C361.972 41.9513 365.853 40.8906 370.69 40.8906C374.442 40.8906 377.701 41.5374 380.469 42.8309C383.263 44.0985 385.307 46.1163 386.6 48.8844C387.273 50.2555 387.687 51.7042 387.842 53.2306C387.997 54.7569 388.075 56.3996 388.075 58.1588V83.964H380.896V74.3792L382.293 75.6209C380.56 78.8288 378.348 81.2218 375.657 82.7998C372.993 84.352 369.707 85.1281 365.801 85.1281ZM367.237 78.4925C369.539 78.4925 371.518 78.0915 373.174 77.2896C374.83 76.4617 376.162 75.414 377.171 74.1464C378.18 72.8787 378.839 71.5594 379.15 70.1883C379.59 68.9465 379.835 67.5495 379.887 65.9974C379.965 64.4452 380.004 63.2034 380.004 62.2721L382.642 63.2422C380.081 63.6303 377.753 63.9795 375.657 64.2899C373.562 64.6004 371.661 64.9108 369.953 65.2213C368.272 65.5058 366.771 65.8551 365.452 66.269C364.339 66.657 363.343 67.1227 362.464 67.666C361.61 68.2092 360.925 68.8689 360.407 69.645C359.916 70.4211 359.67 71.3654 359.67 72.4778C359.67 73.5643 359.942 74.5732 360.485 75.5045C361.028 76.41 361.856 77.1343 362.968 77.6776C364.081 78.2209 365.504 78.4925 367.237 78.4925Z" fill="#313131"/>
<path d="M393.496 83.9649V28.0859H416.08C416.624 28.0859 417.296 28.1118 418.098 28.1635C418.9 28.1894 419.663 28.267 420.388 28.3964C423.492 28.8879 426.079 29.9486 428.149 31.5784C430.244 33.2082 431.809 35.2648 432.844 37.7483C433.879 40.2318 434.396 42.9741 434.396 45.975C434.396 49.0017 433.879 51.7569 432.844 54.2404C431.809 56.7239 430.244 58.7806 428.149 60.4104C426.079 62.0402 423.492 63.1008 420.388 63.5924C419.663 63.6958 418.887 63.7734 418.059 63.8252C417.257 63.8769 416.598 63.9028 416.08 63.9028H401.606V83.9649H393.496ZM401.606 56.2194H415.77C416.287 56.2194 416.856 56.1936 417.477 56.1418C418.124 56.0901 418.732 55.9995 419.301 55.8702C420.957 55.4821 422.289 54.7707 423.298 53.7359C424.307 52.6753 425.031 51.4594 425.471 50.0883C425.911 48.7172 426.131 47.3461 426.131 45.975C426.131 44.6039 425.911 43.2457 425.471 41.9005C425.031 40.5293 424.307 39.3264 423.298 38.2916C422.289 37.2309 420.957 36.5066 419.301 36.1185C418.732 35.9633 418.124 35.8598 417.477 35.8081C416.856 35.7564 416.287 35.7305 415.77 35.7305H401.606V56.2194Z" fill="#313131"/>
<path d="M448.043 85.1281C444.939 85.1281 442.339 84.559 440.243 83.4207C438.148 82.2566 436.557 80.7303 435.47 78.8417C434.41 76.9274 433.879 74.8319 433.879 72.5554C433.879 70.434 434.254 68.5714 435.005 66.9675C435.755 65.3635 436.867 64.0054 438.342 62.893C439.816 61.7547 441.627 60.8363 443.774 60.1378C445.637 59.5946 447.746 59.116 450.1 58.702C452.454 58.2881 454.924 57.9001 457.511 57.5379C460.124 57.1757 462.711 56.8135 465.272 56.4514L462.323 58.0812C462.375 54.7957 461.676 52.3639 460.228 50.7859C458.805 49.1819 456.347 48.38 452.855 48.38C450.656 48.38 448.638 48.8974 446.801 49.9322C444.965 50.9411 443.684 52.6226 442.96 54.9768L435.393 52.6485C436.427 49.0526 438.394 46.194 441.291 44.0726C444.214 41.9513 448.095 40.8906 452.932 40.8906C456.684 40.8906 459.943 41.5374 462.711 42.8309C465.505 44.0985 467.549 46.1163 468.842 48.8844C469.515 50.2555 469.929 51.7042 470.084 53.2306C470.239 54.7569 470.317 56.3996 470.317 58.1588V83.964H463.138V74.3792L464.535 75.6209C462.802 78.8288 460.59 81.2218 457.899 82.7998C455.235 84.352 451.949 85.1281 448.043 85.1281ZM449.479 78.4925C451.781 78.4925 453.76 78.0915 455.416 77.2896C457.072 76.4617 458.404 75.414 459.413 74.1464C460.422 72.8787 461.081 71.5594 461.392 70.1883C461.832 68.9465 462.077 67.5495 462.129 65.9974C462.207 64.4452 462.246 63.2034 462.246 62.2721L464.884 63.2422C462.323 63.6303 459.995 63.9795 457.899 64.2899C455.804 64.6004 453.903 64.9108 452.195 65.2213C450.514 65.5058 449.013 65.8551 447.694 66.269C446.581 66.657 445.585 67.1227 444.706 67.666C443.852 68.2092 443.167 68.8689 442.649 69.645C442.158 70.4211 441.912 71.3654 441.912 72.4778C441.912 73.5643 442.183 74.5732 442.727 75.5045C443.27 76.41 444.098 77.1343 445.21 77.6776C446.323 78.2209 447.746 78.4925 449.479 78.4925Z" fill="#313131"/>
<path d="M471.078 83.9658L486.755 62.7784L471.428 42.0566H481.051L491.49 56.4532L501.812 42.0566H511.435L496.107 62.7784L511.823 83.9658H502.161L491.49 69.1035L480.741 83.9658H471.078Z" fill="#313131"/>
</svg>
