<svg width="125" height="53" viewBox="0 0 125 53" fill="none" xmlns="http://www.w3.org/2000/svg">
<path d="M117.201 45.2183V39.5983C108.381 43.4883 101.291 41.3883 96.2106 33.3683C92.9706 28.2483 93.9506 20.8583 98.4106 16.2183C102.731 11.7183 109.261 9.15833 117.161 13.1083C117.241 12.4483 117.311 11.8283 117.391 11.0783C119.741 11.0783 122.081 11.0583 124.411 11.1283C124.601 11.1283 124.921 11.7783 124.931 12.1283C124.981 14.1383 124.951 16.1383 124.951 18.1483C124.951 29.2483 124.941 40.3483 124.971 51.4583C124.971 52.5283 124.691 52.8383 123.581 52.8383C115.601 52.7883 107.621 52.7983 99.6406 52.8383C98.5306 52.8383 98.0906 52.6083 98.1706 51.4083C98.2806 49.8183 98.2406 48.2183 98.1706 46.6183C98.1206 45.5583 98.4706 45.1883 99.5806 45.1983C105.411 45.2483 111.231 45.2183 117.191 45.2183H117.201ZM109.871 18.8283C105.521 18.8283 102.091 22.1183 102.061 26.3583C102.031 30.4483 105.491 33.8983 109.621 33.8883C113.681 33.8783 117.261 30.3383 117.261 26.3583C117.261 22.3283 113.841 18.8483 109.881 18.8383L109.871 18.8283Z" fill="black"/>
<path d="M36.8319 13.2884C41.1819 11.1484 45.5519 10.7284 50.0019 12.3784C53.0919 13.5284 55.4319 15.6184 57.2419 18.3084C60.8119 23.6284 60.4919 30.5884 56.4919 35.8984C55.0119 37.8584 53.0419 39.1484 50.8819 40.2284C48.6919 41.3284 46.3719 41.7584 43.9319 41.7384C41.4819 41.7184 39.2619 40.8984 37.2019 39.6884C37.0719 39.8284 36.9819 39.8884 36.9619 39.9484C36.7352 41.1551 35.9952 41.7584 34.7419 41.7584C33.2519 41.7584 31.7619 41.7184 30.2819 41.7784C29.4119 41.8084 29.1719 41.5284 29.1719 40.6584C29.2019 27.9184 29.1919 15.1784 29.1919 2.43842C29.1919 1.70842 29.1919 0.978418 29.1919 0.128418H36.8419V13.2784L36.8319 13.2884ZM52.0919 26.6684C52.0919 22.5584 48.6719 19.0784 44.6119 19.0784C40.4519 19.0784 36.8819 22.5384 36.8819 26.5784C36.8819 30.6984 40.3919 34.1684 44.5719 34.1284C47.6419 34.0984 52.0919 31.5184 52.0919 26.6684Z" fill="black"/>
<path d="M80.3581 11.3686C81.3781 11.3686 82.1381 11.3686 82.8981 11.3686C85.0881 11.3886 87.2781 11.4386 89.4681 11.4086C90.2381 11.4086 90.6181 11.5786 90.5981 12.4186C90.5581 14.2986 90.5781 16.1886 90.5981 18.0686C90.6081 19.0086 89.9881 18.9786 89.3481 18.9786C86.4581 18.9686 83.5581 19.0086 80.6681 18.9286C79.5181 18.8986 79.2081 19.2586 79.2181 20.3886C79.2681 26.8586 79.2481 33.3386 79.2481 39.8086C79.2481 41.1086 78.5748 41.7619 77.2281 41.7686C75.7381 41.7686 74.2481 41.7186 72.7681 41.8186C71.6481 41.8886 71.3481 41.4786 71.3681 40.4186C71.4481 33.6986 71.4381 26.9786 71.5481 20.2686C71.5681 19.1686 71.2181 18.9586 70.2281 18.9886C68.1281 19.0486 66.0281 19.0086 63.8281 19.0086V11.5586C64.1381 11.5086 64.5581 11.3786 64.9781 11.3786C66.9181 11.3586 68.8681 11.3186 70.8081 11.3986C71.6281 11.4386 71.9581 11.1886 72.2481 10.4486C73.6181 6.97857 75.5981 3.97857 79.0281 2.12857C81.4681 0.808569 84.0581 0.0485686 86.8381 0.00856863C88.9481 -0.0214314 91.0581 0.0385686 93.1681 0.0185686C94.0581 0.0185686 94.5181 0.228569 94.4681 1.26857C94.3781 3.02857 94.3981 4.78857 94.4781 6.54857C94.5281 7.55857 94.1481 7.79857 93.1981 7.77857C90.8881 7.71857 88.5681 7.67857 86.2581 7.79857C83.8381 7.91857 81.8681 8.95857 80.3681 11.3686H80.3581Z" fill="black"/>
<path d="M0.04 41.3985C0.04 40.5885 0.04 39.8585 0.04 39.1285C0.04 34.2185 0.04 29.2985 0 24.3885C0 23.4285 0.24 23.1485 1.25 23.1585C6.5 23.2285 11.75 23.2185 17 23.1885C18.07 23.1885 18.52 23.4185 18.51 24.6185C18.44 29.8585 18.48 35.0985 18.49 40.3485C18.49 40.6685 18.49 40.9885 18.49 41.4085H0.04V41.3985Z" fill="black"/>
</svg>
