<svg width="540" height="111" viewBox="0 0 540 111" fill="none" xmlns="http://www.w3.org/2000/svg">
<g clip-path="url(#clip0_74_10)">
<mask id="mask0_74_10" style="mask-type:luminance" maskUnits="userSpaceOnUse" x="2" y="0" width="538" height="109">
<path d="M540.001 0H2.80469V108.558H540.001V0Z" fill="white"/>
</mask>
<g mask="url(#mask0_74_10)">
<path fill-rule="evenodd" clip-rule="evenodd" d="M90.5775 91.6533C87.3135 89.9118 83.8495 86.7573 73.1716 75.8033C40.8508 42.6465 12.0012 50.7658 13.3921 44.1586C14.7618 37.6538 44.3305 27.5961 72.0754 13.8937C100.423 -0.106501 100.366 -0.0860862 106.083 1.58823C112.096 3.34933 110.485 1.52147 147.492 48.5605C165.954 72.0273 172.298 79.8585 172.893 79.9182C173.815 80.0104 190.302 56.6589 190.465 55.0309C190.533 54.3462 177.337 35.3808 172.859 29.7283L170.832 27.1697L168.941 28.8054C167.9 29.7051 165.027 32.4095 162.556 34.8152C158.707 38.561 155.896 45.1126 153.716 47.1057C151.441 46.0885 150.766 45.8897 150.66 45.8791C149.768 45.7897 145.487 39.7873 145.892 39.1937C147.412 36.9617 167.419 19.9469 168.643 19.827C172.674 19.4321 174.092 21.8784 187.091 40.5322C194.929 51.779 195.331 52.5989 195.147 56.9843L195.049 59.3213L193.561 61.9102C191.439 65.6014 182.029 80.3589 179.496 83.9693C176.488 88.2542 174.858 89.2285 171.73 88.6088C169.106 88.0886 167.169 85.8925 144.921 58.2117C111.978 17.223 105.779 9.83077 104.563 10.0868C102.224 10.5797 53.2569 36.122 53.1679 37.0114C53.0457 38.2325 92.3447 79.7973 95.3922 81.7596C97.4699 83.0973 98.7894 81.3083 112.01 69.6477C112.813 68.9394 117.564 64.663 122.567 60.1447C127.571 55.6263 132.012 51.6359 132.436 51.2768L133.207 50.6245L136.956 51.7788C139.646 54.9942 139.135 57.799 138.772 58.1717C138.008 58.9565 124.218 72.5775 119.887 76.8253C106.125 90.3231 103.485 92.2258 97.982 92.6156C94.5732 92.8572 92.2729 92.5582 90.5775 91.6533Z" fill="#DFDFDF"/>
<path fill-rule="evenodd" clip-rule="evenodd" d="M194.355 54.7487C195.874 57.5429 193.502 60.8586 190.368 60.3204L165.964 56.129C165.285 56.0124 164.904 55.2802 165.199 54.6571C165.362 54.3107 165.703 54.0822 166.085 54.0621L190.813 52.766C192.277 52.6893 193.654 53.4605 194.355 54.7487Z" fill="#313131"/>
<path fill-rule="evenodd" clip-rule="evenodd" d="M56.6053 39.7006C57.5864 42.2181 55.83 44.9614 53.1338 45.1228L5.3613 47.9821C3.31641 48.1045 2.41232 45.4527 4.10576 44.2996C4.30688 44.1626 4.53112 44.0632 4.76762 44.0061L50.3013 33.0136C52.2375 32.5462 54.221 33.5821 54.9445 35.4386L56.6053 39.7006Z" fill="#313131"/>
<path fill-rule="evenodd" clip-rule="evenodd" d="M95.9882 91.0865C92.8551 89.4148 89.5299 86.3868 79.2802 75.872C48.2551 44.0444 47.5573 43.1472 48.8924 36.8049C50.2071 30.5609 51.5953 29.5974 78.2278 16.4443C105.438 3.00547 105.384 3.02506 110.872 4.63225C116.644 6.32275 115.098 4.56817 150.621 49.7213C168.343 72.2473 174.432 79.7645 175.004 79.8218C175.888 79.9104 191.715 57.495 191.871 55.9323C191.937 55.2751 179.27 37.07 174.971 31.6441L173.025 29.188L171.209 30.7582C170.211 31.6219 167.453 34.2178 165.081 36.527C158.955 42.4894 153.919 47.1732 153.661 47.1474C152.805 47.0616 148.696 41.2998 149.084 40.73C150.544 38.5875 169.749 22.2549 170.924 22.1398C174.793 21.7607 176.154 24.1089 188.633 42.0148C196.156 52.8108 196.542 53.5978 196.365 57.8074L196.271 60.0507L194.842 62.5358C192.806 66.079 183.773 80.2449 181.341 83.7105C178.455 87.8236 176.889 88.7589 173.887 88.1641C171.368 87.6647 169.509 85.5567 148.153 58.9855C116.531 19.6401 110.58 12.5443 109.413 12.7901C107.167 13.2632 60.1638 37.7815 60.0784 38.6352C59.9611 39.8074 97.6846 79.7058 100.61 81.5895C102.604 82.8735 103.871 81.1562 116.561 69.9631C117.333 69.2832 121.893 65.1783 126.696 60.841C131.498 56.5038 135.761 52.6734 136.168 52.3287L136.908 51.7025L139.773 55.1262C142.355 58.2127 142.599 58.5894 142.251 58.9472C141.517 59.7005 128.28 72.7754 124.123 76.8529C110.912 89.8096 108.379 91.636 103.096 92.0102C99.8237 92.2421 97.6156 91.9551 95.9882 91.0865Z" fill="#313131"/>
</g>
<path d="M225.797 83.9649V28.0859H233.131L253.387 70.1116L273.527 28.0859H280.939V83.9261H273.256V45.7033L255.211 83.9649H251.525L233.442 45.7033V83.9649H225.797Z" fill="#313131"/>
<path d="M305.74 85.1291C301.575 85.1291 297.914 84.2237 294.758 82.4128C291.628 80.576 289.183 78.0278 287.424 74.7682C285.691 71.4828 284.824 67.6799 284.824 63.3596C284.824 58.7807 285.678 54.8096 287.385 51.4465C289.118 48.0835 291.524 45.4835 294.603 43.6468C297.681 41.81 301.264 40.8916 305.352 40.8916C309.62 40.8916 313.255 41.8876 316.256 43.8796C319.257 45.8457 321.495 48.6526 322.969 52.3002C324.47 55.9479 325.065 60.2811 324.754 65.2999H316.644V62.3507C316.592 57.4872 315.661 53.8912 313.85 51.563C312.065 49.2347 309.336 48.0705 305.662 48.0705C301.601 48.0705 298.548 49.3511 296.504 51.9122C294.461 54.4733 293.439 58.1727 293.439 63.0104C293.439 67.6152 294.461 71.1853 296.504 73.7205C298.548 76.2299 301.497 77.4846 305.352 77.4846C307.887 77.4846 310.073 76.9154 311.91 75.7772C313.772 74.613 315.221 72.9574 316.256 70.8102L324.211 73.3325C322.581 77.0836 320.111 79.994 316.799 82.0635C313.488 84.1073 309.801 85.1291 305.74 85.1291ZM290.8 65.2999V58.9747H320.718V65.2999H290.8Z" fill="#313131"/>
<path d="M352.786 83.9648C350.147 84.4822 347.56 84.7021 345.025 84.6245C342.49 84.5469 340.226 84.0553 338.234 83.1499C336.242 82.2444 334.742 80.8216 333.733 78.8814C332.828 77.1481 332.336 75.3889 332.258 73.6039C332.207 71.793 332.181 69.7493 332.181 67.4727V30.4141H340.33V67.0847C340.33 68.7662 340.343 70.2279 340.369 71.4696C340.42 72.7114 340.692 73.7591 341.184 74.6128C342.115 76.2168 343.589 77.1351 345.607 77.368C347.651 77.5749 350.044 77.4844 352.786 77.0963V83.9648ZM324.148 48.5748V42.0556H352.786V48.5748H324.148Z" fill="#313131"/>
<path d="M368.801 85.1291C365.697 85.1291 363.097 84.56 361.001 83.4217C358.906 82.2576 357.315 80.7313 356.228 78.8427C355.168 76.9284 354.637 74.8329 354.637 72.5564C354.637 70.435 355.012 68.5724 355.763 66.9685C356.513 65.3645 357.625 64.0064 359.1 62.894C360.574 61.7557 362.385 60.8373 364.533 60.1388C366.395 59.5956 368.504 59.117 370.858 58.703C373.212 58.2891 375.682 57.9011 378.269 57.5389C380.882 57.1767 383.469 56.8145 386.03 56.4524L383.081 58.0822C383.133 54.7967 382.434 52.3649 380.986 50.7869C379.563 49.1829 377.105 48.381 373.613 48.381C371.414 48.381 369.396 48.8984 367.559 49.9332C365.723 50.9421 364.442 52.6236 363.718 54.9778L356.151 52.6495C357.185 49.0536 359.152 46.195 362.049 44.0736C364.972 41.9523 368.853 40.8916 373.69 40.8916C377.442 40.8916 380.701 41.5384 383.469 42.8319C386.263 44.0995 388.307 46.1173 389.6 48.8854C390.273 50.2565 390.687 51.7052 390.842 53.2316C390.997 54.7579 391.075 56.4006 391.075 58.1598V83.965H383.896V74.3802L385.293 75.6219C383.56 78.8298 381.348 81.2228 378.657 82.8008C375.993 84.353 372.707 85.1291 368.801 85.1291ZM370.237 78.4935C372.539 78.4935 374.518 78.0925 376.174 77.2906C377.83 76.4627 379.162 75.415 380.171 74.1474C381.18 72.8797 381.839 71.5604 382.15 70.1893C382.59 68.9475 382.835 67.5505 382.887 65.9984C382.965 64.4462 383.004 63.2044 383.004 62.2731L385.642 63.2432C383.081 63.6313 380.753 63.9805 378.657 64.2909C376.562 64.6014 374.661 64.9118 372.953 65.2223C371.272 65.5068 369.771 65.8561 368.452 66.27C367.339 66.658 366.343 67.1237 365.464 67.667C364.61 68.2102 363.925 68.8699 363.407 69.646C362.916 70.4221 362.67 71.3664 362.67 72.4788C362.67 73.5653 362.942 74.5742 363.485 75.5055C364.028 76.411 364.856 77.1353 365.968 77.6786C367.081 78.2219 368.504 78.4935 370.237 78.4935Z" fill="#313131"/>
<path d="M396.496 83.9649V28.0859H419.08C419.624 28.0859 420.296 28.1118 421.098 28.1635C421.9 28.1894 422.663 28.267 423.388 28.3964C426.492 28.8879 429.079 29.9486 431.149 31.5784C433.244 33.2082 434.809 35.2648 435.844 37.7483C436.879 40.2318 437.396 42.9741 437.396 45.975C437.396 49.0017 436.879 51.7569 435.844 54.2404C434.809 56.7239 433.244 58.7806 431.149 60.4104C429.079 62.0402 426.492 63.1008 423.388 63.5924C422.663 63.6958 421.887 63.7734 421.059 63.8252C420.257 63.8769 419.598 63.9028 419.08 63.9028H404.606V83.9649H396.496ZM404.606 56.2194H418.77C419.287 56.2194 419.856 56.1936 420.477 56.1418C421.124 56.0901 421.732 55.9995 422.301 55.8702C423.957 55.4821 425.289 54.7707 426.298 53.7359C427.307 52.6753 428.031 51.4594 428.471 50.0883C428.911 48.7172 429.131 47.3461 429.131 45.975C429.131 44.6039 428.911 43.2457 428.471 41.9005C428.031 40.5293 427.307 39.3264 426.298 38.2916C425.289 37.2309 423.957 36.5066 422.301 36.1185C421.732 35.9633 421.124 35.8598 420.477 35.8081C419.856 35.7564 419.287 35.7305 418.77 35.7305H404.606V56.2194Z" fill="#313131"/>
<path d="M451.043 85.1291C447.939 85.1291 445.339 84.56 443.243 83.4217C441.148 82.2576 439.557 80.7313 438.47 78.8427C437.41 76.9284 436.879 74.8329 436.879 72.5564C436.879 70.435 437.254 68.5724 438.005 66.9685C438.755 65.3645 439.867 64.0064 441.342 62.894C442.816 61.7557 444.627 60.8373 446.774 60.1388C448.637 59.5956 450.746 59.117 453.1 58.703C455.454 58.2891 457.924 57.9011 460.511 57.5389C463.124 57.1767 465.711 56.8145 468.272 56.4524L465.323 58.0822C465.375 54.7967 464.676 52.3649 463.228 50.7869C461.805 49.1829 459.347 48.381 455.855 48.381C453.656 48.381 451.638 48.8984 449.801 49.9332C447.965 50.9421 446.684 52.6236 445.96 54.9778L438.393 52.6495C439.427 49.0536 441.394 46.195 444.291 44.0736C447.214 41.9523 451.095 40.8916 455.932 40.8916C459.684 40.8916 462.943 41.5384 465.711 42.8319C468.505 44.0995 470.549 46.1173 471.842 48.8854C472.515 50.2565 472.929 51.7052 473.084 53.2316C473.239 54.7579 473.317 56.4006 473.317 58.1598V83.965H466.138V74.3802L467.535 75.6219C465.802 78.8298 463.59 81.2228 460.899 82.8008C458.235 84.353 454.949 85.1291 451.043 85.1291ZM452.479 78.4935C454.781 78.4935 456.76 78.0925 458.416 77.2906C460.072 76.4627 461.404 75.415 462.413 74.1474C463.422 72.8797 464.081 71.5604 464.392 70.1893C464.832 68.9475 465.077 67.5505 465.129 65.9984C465.207 64.4462 465.246 63.2044 465.246 62.2731L467.884 63.2432C465.323 63.6313 462.995 63.9805 460.899 64.2909C458.804 64.6014 456.903 64.9118 455.195 65.2223C453.514 65.5068 452.013 65.8561 450.694 66.27C449.581 66.658 448.585 67.1237 447.706 67.667C446.852 68.2102 446.167 68.8699 445.649 69.646C445.158 70.4221 444.912 71.3664 444.912 72.4788C444.912 73.5653 445.183 74.5742 445.727 75.5055C446.27 76.411 447.098 77.1353 448.21 77.6786C449.323 78.2219 450.746 78.4935 452.479 78.4935Z" fill="#313131"/>
<path d="M474.078 83.9649L489.755 62.7775L474.428 42.0557H484.051L494.49 56.4523L504.812 42.0557H514.435L499.107 62.7775L514.823 83.9649H505.161L494.49 69.1026L483.741 83.9649H474.078Z" fill="#313131"/>
</g>
<defs>
<clipPath id="clip0_74_10">
<rect width="540" height="111" fill="white"/>
</clipPath>
</defs>
</svg>
