<svg width="408" height="72" viewBox="0 0 408 72" fill="none" xmlns="http://www.w3.org/2000/svg">
<path d="M32.7917 1.51C32.7717 8.03 32.7317 14.55 32.7517 21.07C32.7517 23.89 31.8917 26.37 30.0317 28.46C28.6217 30.05 26.8717 31.1 24.7917 31.74C23.8117 32.04 22.8717 32.23 21.9017 32.23C16.8917 32.27 11.8817 32.23 6.87172 32.26H0.0117188V71.81H4.17172C4.33172 71.81 4.48172 71.83 4.64172 71.83C16.0217 71.83 27.4017 71.83 38.7817 71.83H40.0017V70.99C40.0017 64.16 40.0017 57.33 40.0017 50.5C40.0017 49 40.3117 47.56 40.8617 46.15C42.5717 41.77 47.2217 39.26 51.3617 39.24C56.1317 39.22 60.9117 39.22 65.7017 39.23H72.5717V0H32.7917C32.7917 0.53 32.7917 1.02 32.7917 1.51ZM38.6917 27.77C39.4117 25.95 39.9017 24.06 39.9317 22.11C40.0117 17.19 39.9617 12.26 39.9717 7.33C39.9717 7.13 39.9717 6.93 39.9717 6.75C40.7117 6.75 41.3917 6.75 42.0717 6.75C49.6417 6.75 57.2217 6.75 64.7917 6.73C65.4217 6.73 65.3817 7.08 65.3817 7.48C65.3617 11.02 65.3217 14.56 65.3217 18.1C65.3217 22.61 65.3517 27.12 65.3717 31.63C65.3717 31.9 65.3717 32.16 65.3717 32.51C64.9817 32.51 64.5917 32.51 64.2117 32.51C59.7217 32.51 55.2217 32.46 50.7317 32.55C46.6017 32.63 42.9117 34.02 39.6417 36.56C36.9217 38.68 35.1117 41.43 33.8617 44.57C33.0517 46.6 32.7917 48.76 32.7817 50.94C32.7617 55.49 32.7517 60.05 32.7417 64.6C32.7417 64.72 32.7317 64.84 32.7217 65H7.13172V39.52C7.64172 39.52 8.19172 39.52 8.75172 39.52C12.8117 39.52 16.8617 39.54 20.9217 39.52C22.9217 39.52 24.9317 39.33 26.8317 38.75C29.2517 38 31.4917 36.84 33.4017 35.11C35.6917 33.03 37.5717 30.67 38.7017 27.77H38.6917Z" fill="#33CC66"/>
<path d="M407.249 38.2599C407.249 37.0299 407.129 35.7699 406.889 34.5599C405.879 29.5999 403.049 26.0799 398.349 24.0999C396.179 23.1899 393.889 23.1699 391.599 23.2999C387.599 23.5299 384.299 25.0799 381.949 28.4199C381.829 28.5899 381.679 28.7399 381.519 28.9299C381.419 28.7899 381.369 28.7199 381.319 28.6499C379.399 25.4699 376.639 23.5299 372.909 23.1099C367.949 22.5599 363.619 23.7399 360.469 27.8999C360.349 28.0699 360.199 28.2199 360.039 28.4199C360.039 27.1199 360.029 25.9199 360.039 24.7299C360.039 24.2499 359.929 24.0399 359.379 24.0499C357.089 24.0899 354.799 24.0899 352.509 24.0499C351.949 24.0499 351.809 24.2099 351.809 24.7499C351.819 36.8599 351.829 48.9699 351.809 61.0699C351.809 61.5699 351.959 61.6999 352.449 61.6999C354.509 61.6799 356.569 61.6899 358.629 61.6999C360.019 61.6999 360.009 61.6999 359.999 60.3499C359.999 54.5799 359.979 48.7999 359.999 43.0299C359.999 41.3599 360.049 39.6799 360.209 38.0099C360.449 35.4899 361.639 33.4699 363.719 31.9799C365.259 30.8799 366.989 30.6999 368.819 30.7399C371.599 30.7999 374.009 32.4199 374.769 35.0799C375.149 36.4099 375.329 37.8399 375.339 39.2299C375.389 46.3899 375.349 53.5499 375.349 60.7099C375.349 60.9499 375.379 61.1899 375.399 61.4599C377.899 61.4599 380.329 61.4599 382.759 61.4599C383.549 61.4599 383.549 61.4599 383.549 60.6799C383.539 56.7899 383.499 52.8999 383.519 49.0099C383.539 45.3699 383.489 41.7199 383.699 38.0899C383.879 35.0599 385.289 32.6399 388.199 31.2999C389.509 30.6999 390.909 30.7599 392.299 30.7499C395.009 30.7299 396.849 32.0899 398.139 34.3199C399.029 35.8699 399.049 37.6099 399.059 39.3299C399.069 46.5899 399.069 53.8599 399.059 61.1199C399.059 61.5999 399.209 61.7099 399.659 61.7099C401.909 61.6899 404.149 61.7099 406.399 61.6999C407.269 61.6999 407.269 61.6999 407.269 60.7999C407.269 53.2899 407.269 45.7699 407.239 38.2599H407.249Z" fill="black"/>
<path d="M135.239 10.8798C135.239 10.3098 135.089 10.1398 134.509 10.1498C132.219 10.1798 129.929 10.1698 127.639 10.1498C127.199 10.1498 127.009 10.2498 127.009 10.7298C127.039 16.4998 127.059 22.2798 127.079 28.0498C127.079 28.4498 127.079 28.8398 127.079 29.2398C126.839 29.1798 126.749 29.0998 126.679 29.0098C123.309 24.8498 118.809 22.9998 113.559 22.9898C108.679 22.9798 104.519 24.8798 100.989 28.2198C94.8386 34.0198 93.3286 42.9698 96.2486 50.6698C98.7386 57.2498 106.389 63.6498 115.529 62.6898C119.179 62.3098 122.419 61.0398 125.089 58.4798C125.719 57.8798 126.289 57.2298 126.979 56.5098C127.019 56.7298 127.049 56.8498 127.049 56.9598C127.039 58.3498 127.029 59.7298 126.999 61.1198C126.999 61.5298 127.099 61.7198 127.559 61.7098C129.909 61.6898 132.259 61.6898 134.609 61.7098C135.119 61.7098 135.239 61.5398 135.229 61.0598C135.199 59.2998 135.219 57.5398 135.219 55.7798C135.219 40.8198 135.219 25.8498 135.229 10.8898L135.239 10.8798ZM126.559 42.5398C126.629 47.3598 124.929 51.0998 120.759 53.4298C118.059 54.9498 115.119 55.0398 112.099 54.5498C106.729 53.6798 102.549 48.6098 103.079 42.0498C103.229 40.1898 103.469 38.3298 104.459 36.6898C106.829 32.7798 110.159 30.6198 114.909 30.7198C119.629 30.8198 123.019 32.9598 125.279 36.9698C126.279 38.7398 126.609 40.6998 126.549 42.5298L126.559 42.5398Z" fill="black"/>
<path d="M187.169 23.3502C182.769 23.8702 178.909 25.6302 175.789 28.7402C170.299 34.2002 168.399 40.7402 170.469 48.2302C172.679 56.2202 179.879 61.8702 187.829 62.4502C193.789 62.8902 198.889 60.9102 203.219 56.8802C203.939 56.2102 204.579 55.4402 205.319 54.6602C203.229 53.0002 201.219 51.4102 199.199 49.8102C195.619 54.3302 190.969 55.5002 185.699 54.0302C181.749 52.9302 179.209 50.1202 177.759 46.1702C178.399 46.1702 178.919 46.1702 179.429 46.1702C189.019 46.1702 198.609 46.1902 208.199 46.2102C208.559 46.2102 208.729 46.1202 208.759 45.7402C208.979 43.3402 209.019 40.9402 208.569 38.5702C206.729 29.0102 197.409 22.1302 187.159 23.3502H187.169ZM177.849 39.7302C179.129 34.6002 183.969 30.7902 189.529 30.8802C195.819 30.9902 199.969 35.4902 200.949 39.7302H177.849Z" fill="black"/>
<path d="M241.69 23.9396C231.14 26.7596 225.12 37.7896 227.74 47.6696C230.21 57.0196 239.26 63.4696 248.8 62.4296C254.39 61.8196 258.91 59.2296 262.5 54.9796C262.59 54.8796 262.64 54.7396 262.72 54.5896C260.69 52.9896 258.7 51.4196 256.68 49.8296C252.8 54.5696 247.9 55.6796 242.33 53.7196C238.79 52.4796 236.53 49.8096 235.27 46.1796C235.97 46.1796 236.54 46.1796 237.12 46.1796C246.56 46.1796 256.01 46.1796 265.45 46.2096C266.03 46.2096 266.27 46.0396 266.31 45.4596C266.48 42.4896 266.42 39.5496 265.48 36.6796C262.61 27.8596 253.11 20.8796 241.69 23.9296V23.9396ZM235.37 39.7396C236.18 35.8796 240.13 31.2196 246.18 30.8996C252.86 30.5496 257.42 35.3996 258.41 39.7396H235.37Z" fill="black"/>
<path d="M327.549 23.2499C317.089 23.1199 307.729 31.5499 307.699 42.8199C307.669 54.1599 316.979 62.4399 327.029 62.5399C338.679 62.6599 347.089 53.2199 347.149 42.9399C347.209 32.5999 338.439 23.0599 327.549 23.2499ZM327.309 54.8399C320.219 54.7199 315.209 49.2799 315.399 42.2599C315.569 36.1299 320.989 30.8699 327.229 30.8899C334.479 30.9099 339.419 36.4599 339.429 42.8399C339.349 49.6999 334.089 54.9499 327.309 54.8399Z" fill="black"/>
<path d="M162.989 19.8302C162.989 19.2802 162.989 18.7202 162.989 18.0502H177.629V9.9502H139.629C139.629 10.2702 139.629 10.5002 139.629 10.7202C139.629 12.8702 139.649 15.0202 139.629 17.1802C139.629 18.0802 139.609 18.0702 140.509 18.0702C144.939 18.0702 149.369 18.0702 153.799 18.0702C154.259 18.0702 154.389 18.1802 154.389 18.6602C154.389 32.8102 154.389 46.9702 154.389 61.1202C154.389 61.2902 154.389 61.4702 154.389 61.6902C154.689 61.6902 154.889 61.6902 155.099 61.6902C157.329 61.6902 159.549 61.6902 161.779 61.6902C163.079 61.6902 162.979 61.9302 162.979 60.5102C162.979 46.9602 162.979 33.4002 162.979 19.8502L162.989 19.8302Z" fill="black"/>
<path d="M283.049 32.85C288.369 29.46 295.029 30.49 299.059 35.32C299.279 35.58 299.509 35.83 299.749 36.11C301.729 34.42 303.649 32.79 305.559 31.15C300.679 24.63 292.429 21.55 283.919 24.11C275.559 26.63 269.549 34.8 270.009 43.89C270.439 52.26 276.509 59.92 285.219 62.01C292.989 63.88 301.419 60.45 305.529 54.62C305.449 54.54 305.369 54.44 305.279 54.36C303.629 52.94 301.969 51.52 300.309 50.11C299.909 49.7634 299.542 49.7967 299.209 50.21C295.369 54.93 288.949 56.22 283.709 53.31C275.949 49 275.579 37.6 283.039 32.84L283.049 32.85Z" fill="black"/>
<path d="M221.54 10.1399C219.27 10.1699 217 10.1799 214.74 10.1399C214.17 10.1399 214 10.2799 214 10.8599C214.02 15.0799 214.01 19.2999 214.01 23.5199C214.01 35.9599 214.01 48.3899 214.01 60.8299C214.01 61.6799 214.01 61.6899 214.89 61.6899C217.1 61.6899 219.3 61.6799 221.51 61.7099C222.12 61.7099 222.27 61.4799 222.22 60.9399C222.17 60.4299 222.18 59.9099 222.18 59.3899C222.18 51.5699 222.18 43.7499 222.18 35.9199H222.22C222.22 27.5399 222.22 19.1599 222.23 10.7799C222.23 10.2399 222.04 10.1299 221.54 10.1299V10.1399Z" fill="black"/>
</svg>
